<svg width="57" height="79" viewBox="0 0 57 79" fill="none" xmlns="http://www.w3.org/2000/svg">
<path d="M50.6667 0H6.33333C4.65363 0 3.04272 0.665868 1.85499 1.85112C0.66726 3.03637 0 4.64392 0 6.32013V75.8415C0.000281189 76.4055 0.151793 76.9591 0.438812 77.4449C0.725831 77.9307 1.1379 78.331 1.63226 78.6042C2.12661 78.8775 2.68525 79.0138 3.25018 78.9989C3.81512 78.984 4.36577 78.8186 4.845 78.5197L29 63.5L52.159 78.5197C52.6381 78.8175 53.1884 78.9822 53.7527 78.9965C54.317 79.0108 54.875 78.8744 55.3687 78.6012C55.8624 78.3281 56.274 77.9282 56.5608 77.443C56.8477 76.9578 56.9993 76.4049 57 75.8415V6.32013C57 4.64392 56.3327 3.03637 55.145 1.85112C53.9573 0.665868 52.3464 0 50.6667 0Z" fill="#2980BA"/>
<circle cx="29" cy="27" r="14" fill="#EDECEC"/>
<path d="M31.8606 33.09C29.8266 33.09 28.4766 31.722 28.4766 29.778V24.198C28.4766 22.254 29.8266 20.886 31.8426 20.886C33.8766 20.886 35.2266 22.254 35.2266 24.198V29.778C35.2266 31.722 33.8766 33.09 31.8606 33.09ZM31.8606 31.938C33.2466 31.938 34.0206 31.056 34.0206 29.778V24.198C34.0206 22.92 33.2466 22.038 31.8426 22.038C30.4566 22.038 29.6826 22.92 29.6826 24.198V29.778C29.6826 31.056 30.4566 31.938 31.8606 31.938Z" fill="#1A1A1A"/>
<path d="M25.3482 33.054C25.0242 33.054 24.7542 32.784 24.7542 32.46V22.47L23.2062 23.856C23.0982 23.946 22.9542 24 22.8102 24C22.4682 24 22.1802 23.748 22.1802 23.388C22.1802 23.19 22.2702 23.01 22.4322 22.884L24.2322 21.372C24.5562 21.102 24.8082 20.922 25.1862 20.922C25.6542 20.922 25.9602 21.192 25.9602 21.696V32.46C25.9602 32.784 25.6902 33.054 25.3482 33.054Z" fill="#1A1A1A"/>
</svg>
