<svg width="57" height="79" viewBox="0 0 57 79" fill="none" xmlns="http://www.w3.org/2000/svg">
<path d="M50.6667 0H6.33333C4.65363 0 3.04272 0.665868 1.85499 1.85112C0.66726 3.03637 0 4.64392 0 6.32013V75.8415C0.000281189 76.4055 0.151793 76.9591 0.438812 77.4449C0.725831 77.9307 1.1379 78.331 1.63226 78.6042C2.12661 78.8775 2.68525 79.0138 3.25018 78.9989C3.81512 78.984 4.36577 78.8186 4.845 78.5197L29 63.5L52.159 78.5197C52.6381 78.8175 53.1884 78.9822 53.7527 78.9965C54.317 79.0108 54.875 78.8744 55.3687 78.6012C55.8624 78.3281 56.274 77.9282 56.5608 77.443C56.8477 76.9578 56.9993 76.4049 57 75.8415V6.32013C57 4.64392 56.3327 3.03637 55.145 1.85112C53.9573 0.665868 52.3464 0 50.6667 0Z" fill="#666666"/>
<circle cx="29" cy="27" r="14" fill="#AAAAAA"/>
<path d="M28.8202 34.1C27.3002 34.1 25.8602 33.36 25.3002 31.94C25.2202 31.72 25.2002 31.6 25.2002 31.48C25.2002 31.1 25.4802 30.82 25.8602 30.82C26.1802 30.82 26.3802 31 26.5002 31.32C26.8602 32.28 27.6402 32.82 28.8202 32.82C30.3602 32.82 31.2202 31.84 31.2202 30.42V29.12C31.2202 27.44 30.3602 26.7 28.9402 26.7C27.7402 26.7 27.1402 27.32 26.8402 27.94C26.6802 28.26 26.4002 28.4 26.0802 28.4C25.5602 28.4 25.2402 28.02 25.2402 27.56V21.34C25.2402 20.88 25.4802 20.64 25.9402 20.64H31.4602C31.8002 20.64 32.1002 20.92 32.1002 21.28C32.1002 21.64 31.8002 21.92 31.4602 21.92H26.5202V27C26.7402 26.48 27.4202 25.46 29.2002 25.46C31.3002 25.46 32.5602 26.88 32.5602 29.12V30.42C32.5602 32.58 31.0602 34.1 28.8202 34.1Z" fill="#444444"/>
</svg>
