<svg width="57" height="79" viewBox="0 0 57 79" fill="none" xmlns="http://www.w3.org/2000/svg">
<path d="M50.6667 0H6.33333C4.65363 0 3.04272 0.665868 1.85499 1.85112C0.66726 3.03637 0 4.64392 0 6.32013V75.8415C0.000281189 76.4055 0.151793 76.9591 0.438812 77.4449C0.725831 77.9307 1.1379 78.331 1.63226 78.6042C2.12661 78.8775 2.68525 79.0138 3.25018 78.9989C3.81512 78.984 4.36577 78.8186 4.845 78.5197L29 63.5L52.159 78.5197C52.6381 78.8175 53.1884 78.9822 53.7527 78.9965C54.317 79.0108 54.875 78.8744 55.3687 78.6012C55.8624 78.3281 56.274 77.9282 56.5608 77.443C56.8477 76.9578 56.9993 76.4049 57 75.8415V6.32013C57 4.64392 56.3327 3.03637 55.145 1.85112C53.9573 0.665868 52.3464 0 50.6667 0Z" fill="url(#paint0_linear_575_50)"/>
<circle cx="29" cy="27" r="14" fill="#EDECEC"/>
<path d="M35.6867 32.0801C33.8787 32.0801 32.6787 30.8641 32.6787 29.1361V24.1761C32.6787 22.4481 33.8787 21.2321 35.6707 21.2321C37.4787 21.2321 38.6787 22.4481 38.6787 24.1761V29.1361C38.6787 30.8641 37.4787 32.0801 35.6867 32.0801ZM35.6867 31.0561C36.9187 31.0561 37.6067 30.2721 37.6067 29.1361V24.1761C37.6067 23.0401 36.9187 22.2561 35.6707 22.2561C34.4387 22.2561 33.7507 23.0401 33.7507 24.1761V29.1361C33.7507 30.2721 34.4387 31.0561 35.6867 31.0561Z" fill="#1A1A1A"/>
<path d="M27.7648 32.0801C25.9568 32.0801 24.7568 30.8641 24.7568 29.1361V24.1761C24.7568 22.4481 25.9568 21.2321 27.7488 21.2321C29.5568 21.2321 30.7568 22.4481 30.7568 24.1761V29.1361C30.7568 30.8641 29.5568 32.0801 27.7648 32.0801ZM27.7648 31.0561C28.9968 31.0561 29.6848 30.2721 29.6848 29.1361V24.1761C29.6848 23.0401 28.9968 22.2561 27.7488 22.2561C26.5168 22.2561 25.8288 23.0401 25.8288 24.1761V29.1361C25.8288 30.2721 26.5168 31.0561 27.7648 31.0561Z" fill="#1A1A1A"/>
<path d="M21.9762 32.048C21.6882 32.048 21.4482 31.808 21.4482 31.52V22.64L20.0722 23.872C19.9762 23.952 19.8482 24 19.7202 24C19.4162 24 19.1602 23.776 19.1602 23.456C19.1602 23.28 19.2402 23.12 19.3842 23.008L20.9842 21.664C21.2722 21.424 21.4962 21.264 21.8322 21.264C22.2482 21.264 22.5202 21.504 22.5202 21.952V31.52C22.5202 31.808 22.2802 32.048 21.9762 32.048Z" fill="#1A1A1A"/>
<defs>
<linearGradient id="paint0_linear_575_50" x1="2" y1="2" x2="55.5" y2="79" gradientUnits="userSpaceOnUse">
<stop stop-color="#FF1966"/>
<stop offset="0.695" stop-color="#FF8266"/>
</linearGradient>
</defs>
</svg>
