<svg width="57" height="79" viewBox="0 0 57 79" fill="none" xmlns="http://www.w3.org/2000/svg">
<path d="M50.6667 0H6.33333C4.65363 0 3.04272 0.665868 1.85499 1.85112C0.66726 3.03637 0 4.64392 0 6.32013V75.8415C0.000281189 76.4055 0.151793 76.9591 0.438812 77.4449C0.725831 77.9307 1.1379 78.331 1.63226 78.6042C2.12661 78.8775 2.68525 79.0138 3.25018 78.9989C3.81512 78.984 4.36577 78.8186 4.845 78.5197L29 63.5L52.159 78.5197C52.6381 78.8175 53.1884 78.9822 53.7527 78.9965C54.317 79.0108 54.875 78.8744 55.3687 78.6012C55.8624 78.3281 56.274 77.9282 56.5608 77.443C56.8477 76.9578 56.9993 76.4049 57 75.8415V6.32013C57 4.64392 56.3327 3.03637 55.145 1.85112C53.9573 0.665868 52.3464 0 50.6667 0Z" fill="#F44C71"/>
<circle cx="29" cy="27" r="14" fill="#EDECEC"/>
<path d="M29.72 34.06C29.36 34.06 29.06 33.76 29.06 33.4V22.3L27.34 23.84C27.22 23.94 27.06 24 26.9 24C26.52 24 26.2 23.72 26.2 23.32C26.2 23.1 26.3 22.9 26.48 22.76L28.48 21.08C28.84 20.78 29.12 20.58 29.54 20.58C30.06 20.58 30.4 20.88 30.4 21.44V33.4C30.4 33.76 30.1 34.06 29.72 34.06Z" fill="#1A1A1A"/>
</svg>
