<svg width="57" height="79" viewBox="0 0 57 79" fill="none" xmlns="http://www.w3.org/2000/svg">
<path d="M50.6667 0H6.33333C4.65363 0 3.04272 0.665868 1.85499 1.85112C0.66726 3.03637 0 4.64392 0 6.32013V75.8415C0.000281189 76.4055 0.151793 76.9591 0.438812 77.4449C0.725831 77.9307 1.1379 78.331 1.63226 78.6042C2.12661 78.8775 2.68525 79.0138 3.25018 78.9989C3.81512 78.984 4.36577 78.8186 4.845 78.5197L29 63.5L52.159 78.5197C52.6381 78.8175 53.1884 78.9822 53.7527 78.9965C54.317 79.0108 54.875 78.8744 55.3687 78.6012C55.8624 78.3281 56.274 77.9282 56.5608 77.443C56.8477 76.9578 56.9993 76.4049 57 75.8415V6.32013C57 4.64392 56.3327 3.03637 55.145 1.85112C53.9573 0.665868 52.3464 0 50.6667 0Z" fill="#666666"/>
<circle cx="29" cy="27" r="14" fill="#AAAAAA"/>
<path d="M33.0598 33.09C31.0258 33.09 29.6758 31.722 29.6758 29.778V24.198C29.6758 22.254 31.0258 20.886 33.0418 20.886C35.0758 20.886 36.4258 22.254 36.4258 24.198V29.778C36.4258 31.722 35.0758 33.09 33.0598 33.09ZM33.0598 31.938C34.4458 31.938 35.2198 31.056 35.2198 29.778V24.198C35.2198 22.92 34.4458 22.038 33.0418 22.038C31.6558 22.038 30.8818 22.92 30.8818 24.198V29.778C30.8818 31.056 31.6558 31.938 33.0598 31.938Z" fill="#444444"/>
<path d="M24.3381 33.09C22.9701 33.09 21.6741 32.424 21.1701 31.146C21.0981 30.948 21.0801 30.84 21.0801 30.732C21.0801 30.39 21.3321 30.138 21.6741 30.138C21.9621 30.138 22.1421 30.3 22.2501 30.588C22.5741 31.452 23.2761 31.938 24.3381 31.938C25.7241 31.938 26.4981 31.056 26.4981 29.778V28.608C26.4981 27.096 25.7241 26.43 24.4461 26.43C23.3661 26.43 22.8261 26.988 22.5561 27.546C22.4121 27.834 22.1601 27.96 21.8721 27.96C21.4041 27.96 21.1161 27.618 21.1161 27.204V21.606C21.1161 21.192 21.3321 20.976 21.7461 20.976H26.7141C27.0201 20.976 27.2901 21.228 27.2901 21.552C27.2901 21.876 27.0201 22.128 26.7141 22.128H22.2681V26.7C22.4661 26.232 23.0781 25.314 24.6801 25.314C26.5701 25.314 27.7041 26.592 27.7041 28.608V29.778C27.7041 31.722 26.3541 33.09 24.3381 33.09Z" fill="#444444"/>
</svg>
