<svg width="57" height="79" viewBox="0 0 57 79" fill="none" xmlns="http://www.w3.org/2000/svg">
<path d="M50.6667 0H6.33333C4.65363 0 3.04272 0.665868 1.85499 1.85112C0.66726 3.03637 0 4.64392 0 6.32013V75.8415C0.000281189 76.4055 0.151793 76.9591 0.438812 77.4449C0.725831 77.9307 1.1379 78.331 1.63226 78.6042C2.12661 78.8775 2.68525 79.0138 3.25018 78.9989C3.81512 78.984 4.36577 78.8186 4.845 78.5197L29 63.5L52.159 78.5197C52.6381 78.8175 53.1884 78.9822 53.7527 78.9965C54.317 79.0108 54.875 78.8744 55.3687 78.6012C55.8624 78.3281 56.274 77.9282 56.5608 77.443C56.8477 76.9578 56.9993 76.4049 57 75.8415V6.32013C57 4.64392 56.3327 3.03637 55.145 1.85112C53.9573 0.665868 52.3464 0 50.6667 0Z" fill="#7E57C2"/>
<circle cx="29" cy="27" r="14" fill="#EDECEC"/>
<path d="M33.6203 33.09C31.5863 33.09 30.2363 31.722 30.2363 29.778V24.198C30.2363 22.254 31.5863 20.886 33.6023 20.886C35.6363 20.886 36.9863 22.254 36.9863 24.198V29.778C36.9863 31.722 35.6363 33.09 33.6203 33.09ZM33.6203 31.938C35.0063 31.938 35.7803 31.056 35.7803 29.778V24.198C35.7803 22.92 35.0063 22.038 33.6023 22.038C32.2163 22.038 31.4423 22.92 31.4423 24.198V29.778C31.4423 31.056 32.2163 31.938 33.6203 31.938Z" fill="#1A1A1A"/>
<path d="M27.9482 33H22.4582C22.0442 33 21.7742 32.73 21.7742 32.352V31.992C21.7742 29.544 23.3042 28.518 24.7442 27.51C26.0042 26.61 27.1922 25.872 27.1922 24.054C27.1922 22.722 26.3462 22.02 25.1402 22.02C23.6462 22.02 22.9082 22.884 22.9082 24.27C22.9082 24.63 22.6742 24.9 22.3142 24.9C21.9722 24.9 21.7202 24.63 21.7202 24.27C21.7202 22.236 22.9982 20.886 25.1042 20.886C27.1742 20.886 28.3982 22.254 28.3982 24C28.3982 26.502 26.8142 27.402 25.3742 28.428C24.1142 29.292 22.9622 30.102 22.9622 31.848H27.9482C28.2542 31.848 28.5242 32.1 28.5242 32.424C28.5242 32.748 28.2542 33 27.9482 33Z" fill="#1A1A1A"/>
</svg>
