<svg width="33" height="34" viewBox="0 0 33 34" fill="none" xmlns="http://www.w3.org/2000/svg">
<rect x="10.5884" y="7.45114" width="9.0198" height="1.1765" fill="#1f1f1f"/>
<rect y="7.45114" width="9.0198" height="1.1765" fill="#1f1f1f"/>
<path fill-rule="evenodd" clip-rule="evenodd" d="M11.7649 0C11.1152 0 10.5884 0.526735 10.5884 1.1765V6.66681H19.6082V1.1765C19.6082 0.526735 19.0815 0 18.4317 0H11.7649ZM19.6082 9.41197H10.5884V32.1576C10.5884 32.8073 11.1152 33.3341 11.7649 33.3341H18.4317C19.0815 33.3341 19.6082 32.8073 19.6082 32.1576V9.41197Z" fill="#1f1f1f"/>
<path fill-rule="evenodd" clip-rule="evenodd" d="M4.5099 0C2.01915 0 0 2.01915 0 4.5099V6.66681H9.0198V1.1765C9.0198 0.526735 8.49307 0 7.84331 0H4.5099ZM9.0198 9.41197H0V32.1576C0 32.8073 0.526736 33.3341 1.1765 33.3341H7.84331C8.49307 33.3341 9.0198 32.8073 9.0198 32.1576V9.41197Z" fill="#1f1f1f"/>
<path fill-rule="evenodd" clip-rule="evenodd" d="M30.693 12.9796C30.3792 10.5087 28.1218 8.76002 25.6509 9.07383L22.344 9.4938C21.6994 9.57566 21.2433 10.1646 21.3251 10.8091L22.0345 16.3949L22.0662 16.6448L22.3133 18.59L22.345 18.8398L24.0426 32.2064C24.1244 32.851 24.7133 33.3071 25.3579 33.2253L31.9716 32.3853C32.6162 32.3035 33.0724 31.7146 32.9905 31.07L31.2929 17.7034L31.2612 17.4536L31.0142 15.5084L30.9824 15.2585L30.693 12.9796Z" fill="#1f1f1f"/>
</svg>
