<svg width="529" height="513" viewBox="0 0 529 513" fill="none" xmlns="http://www.w3.org/2000/svg">
<path d="M292.9 18C287.6 7 276.4 0 264.1 0C251.8 0 240.7 7 235.3 18L171 150.3L27.4 171.5C15.4 173.3 5.4 181.7 1.7 193.2C-2 204.7 0.999997 217.4 9.6 225.9L113.8 329L89.2 474.7C87.2 486.7 92.2 498.9 102.1 506C112 513.1 125.1 514 135.9 508.3L264.2 439.8L392.5 508.3C403.3 514 416.4 513.2 426.3 506C436.2 498.8 441.2 486.7 439.2 474.7L414.5 329L518.7 225.9C527.3 217.4 530.4 204.7 526.6 193.2C522.8 181.7 512.9 173.3 500.9 171.5L357.2 150.3L292.9 18Z" fill="#3D3D3D"/>
<path d="M263.856 0C251.656 0.1 240.556 7 235.256 18L170.856 150.3L27.2564 171.5C15.2564 173.3 5.25645 181.7 1.55645 193.2C-2.14355 204.7 0.856442 217.4 9.45644 225.9L113.656 329L89.0564 474.7C87.0564 486.7 92.0564 498.9 101.956 506C111.856 513.1 124.956 514 135.756 508.3L263.856 439.8V0ZM405.756 512C406.856 512.1 407.856 512.1 408.956 512H405.756Z" fill="#EDEAE8"/>
</svg>
